<svg xmlns="http://www.w3.org/2000/svg" viewBox="0 0 512 512" width="512" height="512">
  <rect width="512" height="512" rx="96" fill="#15171a"/>
  <rect x="96" y="120" width="320" height="200" rx="24" fill="#9ED91A"/>
  <g fill="#14210a">
    <rect x="176" y="145" width="52" height="16" rx="3"/>
    <rect x="160" y="161" width="16" height="51" rx="3"/>
    <rect x="228" y="161" width="16" height="51" rx="3"/>
    <rect x="176" y="212" width="52" height="16" rx="3"/>
    <rect x="160" y="228" width="16" height="51" rx="3"/>
    <rect x="228" y="228" width="16" height="51" rx="3"/>
    <rect x="176" y="279" width="52" height="16" rx="3"/>
    <rect x="284" y="145" width="52" height="16" rx="3"/>
    <rect x="268" y="161" width="16" height="51" rx="3"/>
    <rect x="284" y="212" width="52" height="16" rx="3"/>
    <rect x="336" y="228" width="16" height="51" rx="3"/>
    <rect x="284" y="279" width="52" height="16" rx="3"/>
  </g>
  <rect x="128" y="356" width="76" height="64" rx="14" fill="#c62828"/>
  <rect x="218" y="356" width="76" height="64" rx="14" fill="#23262a"/>
  <rect x="308" y="356" width="76" height="64" rx="14" fill="#23262a"/>
</svg>
